<svg width="55" height="55" viewBox="0 0 55 55" fill="none" xmlns="http://www.w3.org/2000/svg">
<path d="M44.6875 22.3438H51.5625V25.7812H44.6875V22.3438ZM39.5313 13.0384L44.3919 8.17781L46.8222 10.6081L41.9616 15.4688L39.5313 13.0384ZM39.5313 35.0866L41.9616 32.6562L46.8222 37.5169L44.3919 39.9472L39.5313 35.0866ZM29.2188 3.4375H32.6563V10.3125H29.2188V3.4375ZM30.9375 13.75C30.3613 13.7535 29.7864 13.8052 29.2188 13.9047V17.4316C29.7791 17.2779 30.3566 17.1959 30.9375 17.1875C32.7609 17.1875 34.5096 17.9118 35.7989 19.2011C37.0882 20.4905 37.8125 22.2391 37.8125 24.0625C37.8125 25.8859 37.0882 27.6345 35.7989 28.9239C34.5096 30.2132 32.7609 30.9375 30.9375 30.9375V34.375C33.6726 34.375 36.2956 33.2885 38.2296 31.3545C40.1635 29.4206 41.25 26.7975 41.25 24.0625C41.25 21.3275 40.1635 18.7044 38.2296 16.7705C36.2956 14.8365 33.6726 13.75 30.9375 13.75ZM17.1875 34.6912V12.0312H13.75V34.6912C12.6032 35.0967 11.6367 35.8945 11.0213 36.9436C10.4058 37.9928 10.1811 39.2257 10.3868 40.4245C10.5925 41.6234 11.2153 42.7109 12.1453 43.4949C13.0752 44.2789 14.2524 44.7089 15.4688 44.7089C16.6851 44.7089 17.8623 44.2789 18.7922 43.4949C19.7222 42.7109 20.3451 41.6234 20.5508 40.4245C20.7564 39.2257 20.5317 37.9928 19.9163 36.9436C19.3008 35.8945 18.3343 35.0967 17.1875 34.6912Z" fill="#FF0000"/>
<path d="M15.4688 51.5625C13.1003 51.5652 10.7838 50.868 8.81024 49.5585C6.83665 48.2491 5.29394 46.3857 4.37582 44.2024C3.4577 42.0191 3.2051 39.6133 3.64974 37.2869C4.09439 34.9605 5.21645 32.8174 6.87503 31.1266V12.0312C6.87503 9.75205 7.78044 7.56619 9.39208 5.95455C11.0037 4.34291 13.1896 3.4375 15.4688 3.4375C17.748 3.4375 19.9338 4.34291 21.5455 5.95455C23.1571 7.56619 24.0625 9.75205 24.0625 12.0312V31.1266C25.7211 32.8174 26.8432 34.9605 27.2878 37.2869C27.7325 39.6133 27.4799 42.0191 26.5617 44.2024C25.6436 46.3857 24.1009 48.2491 22.1273 49.5585C20.1537 50.868 17.8373 51.5652 15.4688 51.5625ZM15.4688 6.875C14.1017 6.87636 12.791 7.42005 11.8243 8.38674C10.8576 9.35343 10.3139 10.6641 10.3125 12.0312V32.627L9.74191 33.1409C8.44404 34.3009 7.52904 35.8277 7.11803 37.5192C6.70701 39.2107 6.81936 40.9872 7.44019 42.6134C8.06102 44.2396 9.16107 45.639 10.5947 46.6263C12.0284 47.6135 13.7281 48.1421 15.4688 48.1421C17.2095 48.1421 18.9092 47.6135 20.3428 46.6263C21.7765 45.639 22.8765 44.2396 23.4974 42.6134C24.1182 40.9872 24.2305 39.2107 23.8195 37.5192C23.4085 35.8277 22.4935 34.3009 21.1957 33.1409L20.625 32.627V12.0312C20.6237 10.6641 20.08 9.35343 19.1133 8.38674C18.1466 7.42005 16.8359 6.87636 15.4688 6.875Z" fill="#FF0000"/>
</svg>
