<svg width="34" height="34" viewBox="0 0 34 34" fill="none" xmlns="http://www.w3.org/2000/svg">
<path d="M7.43742 5.66683C6.45992 5.66683 5.66659 6.46016 5.66659 7.43766V11.3335C5.66659 11.7092 5.51733 12.0696 5.25165 12.3352C4.98598 12.6009 4.62564 12.7502 4.24992 12.7502C3.8742 12.7502 3.51386 12.6009 3.24818 12.3352C2.98251 12.0696 2.83325 11.7092 2.83325 11.3335V7.43766C2.83325 6.21656 3.31833 5.04547 4.18178 4.18203C5.04523 3.31858 6.21632 2.8335 7.43742 2.8335H11.3333C11.709 2.8335 12.0693 2.98275 12.335 3.24843C12.6007 3.5141 12.7499 3.87444 12.7499 4.25016C12.7499 4.62589 12.6007 4.98622 12.335 5.2519C12.0693 5.51757 11.709 5.66683 11.3333 5.66683H7.43742ZM7.43742 28.3335C6.45992 28.3335 5.66659 27.5402 5.66659 26.5627V22.6668C5.66659 22.2911 5.51733 21.9308 5.25165 21.6651C4.98598 21.3994 4.62564 21.2502 4.24992 21.2502C3.8742 21.2502 3.51386 21.3994 3.24818 21.6651C2.98251 21.9308 2.83325 22.2911 2.83325 22.6668V26.5627C2.83325 27.1673 2.95234 27.766 3.18372 28.3246C3.4151 28.8832 3.75424 29.3908 4.18178 29.8183C4.60932 30.2458 5.11688 30.585 5.67548 30.8164C6.23408 31.0477 6.83279 31.1668 7.43742 31.1668H11.3333C11.709 31.1668 12.0693 31.0176 12.335 30.7519C12.6007 30.4862 12.7499 30.1259 12.7499 29.7502C12.7499 29.3744 12.6007 29.0141 12.335 28.7484C12.0693 28.4828 11.709 28.3335 11.3333 28.3335H7.43742ZM28.3333 7.43766C28.3333 6.46016 27.5399 5.66683 26.5624 5.66683H22.6666C22.2909 5.66683 21.9305 5.51757 21.6649 5.2519C21.3992 4.98622 21.2499 4.62589 21.2499 4.25016C21.2499 3.87444 21.3992 3.5141 21.6649 3.24843C21.9305 2.98275 22.2909 2.8335 22.6666 2.8335H26.5624C27.167 2.8335 27.7658 2.95259 28.3244 3.18397C28.883 3.41535 29.3905 3.75449 29.8181 4.18203C30.2456 4.60956 30.5847 5.11712 30.8161 5.67572C31.0475 6.23433 31.1666 6.83304 31.1666 7.43766V11.3335C31.1666 11.7092 31.0173 12.0696 30.7517 12.3352C30.486 12.6009 30.1256 12.7502 29.7499 12.7502C29.3742 12.7502 29.0139 12.6009 28.7482 12.3352C28.4825 12.0696 28.3333 11.7092 28.3333 11.3335V7.43766ZM26.5624 28.3335C27.5399 28.3335 28.3333 27.5402 28.3333 26.5627V22.6668C28.3333 22.2911 28.4825 21.9308 28.7482 21.6651C29.0139 21.3994 29.3742 21.2502 29.7499 21.2502C30.1256 21.2502 30.486 21.3994 30.7517 21.6651C31.0173 21.9308 31.1666 22.2911 31.1666 22.6668V26.5627C31.1666 27.1673 31.0475 27.766 30.8161 28.3246C30.5847 28.8832 30.2456 29.3908 29.8181 29.8183C29.3905 30.2458 28.883 30.585 28.3244 30.8164C27.7658 31.0477 27.167 31.1668 26.5624 31.1668H22.6666C22.2909 31.1668 21.9305 31.0176 21.6649 30.7519C21.3992 30.4862 21.2499 30.1259 21.2499 29.7502C21.2499 29.3744 21.3992 29.0141 21.6649 28.7484C21.9305 28.4828 22.2909 28.3335 22.6666 28.3335H26.5624ZM16.9999 18.4168C17.3756 18.4168 17.736 18.2676 18.0017 18.0019C18.2673 17.7362 18.4166 17.3759 18.4166 17.0002C18.4166 16.6244 18.2673 16.2641 18.0017 15.9984C17.736 15.7328 17.3756 15.5835 16.9999 15.5835C16.6242 15.5835 16.2639 15.7328 15.9982 15.9984C15.7325 16.2641 15.5833 16.6244 15.5833 17.0002C15.5833 17.3759 15.7325 17.7362 15.9982 18.0019C16.2639 18.2676 16.6242 18.4168 16.9999 18.4168ZM15.3679 9.91683C14.6978 9.91683 14.0844 10.2894 13.7841 10.8773L13.0928 12.7502H12.2782C10.9748 12.7502 9.91659 13.5945 9.91659 14.8752V20.3492C9.91659 21.6284 10.9734 22.6668 12.2782 22.6668H21.7217C23.025 22.6668 24.0833 21.6284 24.0833 20.3492V14.8752C24.0833 13.5945 23.0264 12.7502 21.7217 12.7502H20.9071L20.2158 10.8773C20.0662 10.5866 19.839 10.343 19.5594 10.1735C19.2799 10.0039 18.9589 9.91512 18.6319 9.91683H15.3679ZM16.9999 19.8335C16.2485 19.8335 15.5278 19.535 14.9965 19.0036C14.4651 18.4723 14.1666 17.7516 14.1666 17.0002C14.1666 16.2487 14.4651 15.528 14.9965 14.9967C15.5278 14.4653 16.2485 14.1668 16.9999 14.1668C17.7514 14.1668 18.472 14.4653 19.0034 14.9967C19.5347 15.528 19.8333 16.2487 19.8333 17.0002C19.8333 17.7516 19.5347 18.4723 19.0034 19.0036C18.472 19.535 17.7514 19.8335 16.9999 19.8335Z" fill="#194E19"/>
</svg>
