<svg width="55" height="55" viewBox="0 0 55 55" fill="none" xmlns="http://www.w3.org/2000/svg">
<path d="M20.625 45.8336C11.9831 43.8444 6.875 35.9267 6.875 28.669C6.875 20.0386 14.5979 11.5113 20.02 6.58877C21.4401 5.29872 23.2898 4.58398 25.2083 4.58398C27.1269 4.58398 28.9766 5.29872 30.3967 6.58877C33.8502 9.72377 37.9821 14.3231 40.6794 19.4794" stroke="white" stroke-width="5" stroke-linecap="round" stroke-linejoin="round"/>
<path d="M38.9583 35.5211C35.5208 37.8128 29.7917 42.3961 25.2083 50.417M29.7917 43.542C23.6867 30.1128 36.2885 25.7495 45.6615 25.2453C46.7935 25.1834 47.3573 25.1536 47.7652 25.5455C48.1708 25.9351 48.1456 26.4965 48.0998 27.6126C47.7125 36.9007 43.5302 49.5163 29.7917 43.542Z" stroke="white" stroke-width="5" stroke-linecap="round" stroke-linejoin="round"/>
</svg>
