<svg width="55" height="55" viewBox="0 0 55 55" fill="none" xmlns="http://www.w3.org/2000/svg">
<path d="M22.9167 5.38529C23.2222 5.38529 23.4995 5.43342 23.7486 5.52967C23.9976 5.62592 24.2359 5.76876 24.4636 5.95821C26.1441 7.44779 27.9011 9.09015 29.7344 10.8853C31.5677 12.6804 33.2773 14.5902 34.8631 16.6145C36.449 18.6388 37.824 20.7586 38.9881 22.9738C40.1523 25.1891 40.8681 27.4617 41.1354 29.7915C41.2118 30.4408 41.03 30.9855 40.59 31.4255C40.15 31.8655 39.6061 32.0847 38.9583 32.0832C38.3106 32.0817 37.7667 31.8617 37.3267 31.4232C36.8867 30.9847 36.6094 30.4408 36.4948 29.7915C36.2656 28.4165 35.8554 27.108 35.2642 25.8659C34.6729 24.6238 33.9755 23.3924 33.1719 22.1717C32.0261 20.4148 30.6037 18.5723 28.9048 16.6442C27.2059 14.7162 25.2099 12.7202 22.9167 10.6561C18.3715 14.8193 14.944 18.6579 12.634 22.1717C10.324 25.6856 9.1682 28.8367 9.16668 31.6249C9.16668 34.7568 9.97869 37.545 11.6027 39.9895C13.2267 42.4339 15.5467 44.1526 18.5625 45.1457C19.441 45.4513 20.0139 45.8813 20.2813 46.4359C20.5486 46.9905 20.625 47.5344 20.5104 48.0676C20.3958 48.6008 20.1285 49.0591 19.7083 49.4426C19.2882 49.826 18.7917 49.9406 18.2188 49.7863C13.941 48.7551 10.599 46.5497 8.19272 43.1703C5.78647 39.7908 4.58334 35.9424 4.58334 31.6249C4.58334 29.1804 5.13716 26.7459 6.2448 24.3213C7.35244 21.8967 8.74654 19.5761 10.4271 17.3592C12.1076 15.1424 13.9318 13.0608 15.8996 11.1145C17.8674 9.16807 19.6908 7.44932 21.3698 5.95821C21.599 5.76723 21.8381 5.62362 22.0871 5.52737C22.3361 5.43112 22.6126 5.38376 22.9167 5.38529ZM33.2292 45.8332H28.6458V48.6978C28.6458 49.1943 28.4831 49.6053 28.1577 49.9307C27.8323 50.2561 27.4221 50.4181 26.9271 50.4165C26.4321 50.415 26.0219 50.2523 25.6965 49.9284C25.3711 49.6045 25.2083 49.1943 25.2083 48.6978V38.3853C25.2083 37.8888 25.3711 37.4785 25.6965 37.1547C26.0219 36.8308 26.4321 36.6681 26.9271 36.6665H33.2292C34.1458 36.6665 34.9479 37.0103 35.6354 37.6978C36.3229 38.3853 36.6667 39.1874 36.6667 40.104V42.3957C36.6667 43.3124 36.3229 44.1144 35.6354 44.8019C34.9479 45.4894 34.1458 45.8332 33.2292 45.8332ZM42.3958 44.6874V48.6978C42.3958 49.1943 42.2331 49.6053 41.9077 49.9307C41.5823 50.2561 41.1721 50.4181 40.6771 50.4165C40.1821 50.415 39.7719 50.2523 39.4465 49.9284C39.121 49.6045 38.9583 49.1943 38.9583 48.6978V38.3853C38.9583 37.8888 39.121 37.4785 39.4465 37.1547C39.7719 36.8308 40.1821 36.6681 40.6771 36.6665C41.1721 36.665 41.5831 36.8277 41.91 37.1547C42.237 37.4816 42.3989 37.8918 42.3958 38.3853V41.2499H46.9792V38.3853C46.9792 37.8888 47.1419 37.4785 47.4673 37.1547C47.7927 36.8308 48.2029 36.6681 48.6979 36.6665C49.1929 36.665 49.6039 36.8277 49.9308 37.1547C50.2578 37.4816 50.4197 37.8918 50.4167 38.3853V48.6978C50.4167 49.1943 50.254 49.6053 49.9286 49.9307C49.6031 50.2561 49.1929 50.4181 48.6979 50.4165C48.2029 50.415 47.7927 50.2523 47.4673 49.9284C47.1419 49.6045 46.9792 49.1943 46.9792 48.6978V44.6874H42.3958ZM28.6458 42.3957H33.2292V40.104H28.6458V42.3957Z" fill="#76D200"/>
</svg>
